<svg width="32" height="32" viewBox="0 0 32 32" fill="none" xmlns="http://www.w3.org/2000/svg">
<g id="01 align center">
<path id="Vector" d="M32 4C32 2.93913 31.5786 1.92172 30.8284 1.17157C30.0783 0.421427 29.0609 0 28 0L4 0C2.93913 0 1.92172 0.421427 1.17157 1.17157C0.421427 1.92172 0 2.93913 0 4L0 12H1.33333V32H30.6667V12H32V4ZM2.66667 4C2.66667 3.64638 2.80714 3.30724 3.05719 3.05719C3.30724 2.80714 3.64638 2.66667 4 2.66667H28C28.3536 2.66667 28.6928 2.80714 28.9428 3.05719C29.1929 3.30724 29.3333 3.64638 29.3333 4V9.33333H2.66667V4ZM28 29.3333H4V12H28V29.3333Z" fill="white"/>
<path id="Vector_2" d="M21.3329 16H10.6662V18.6667H21.3329V16Z" fill="white"/>
</g>
</svg>
