<svg width="56" height="56" viewBox="0 0 56 56" fill="none" xmlns="http://www.w3.org/2000/svg">
<rect width="56" height="56" rx="4" fill="#00509D" fill-opacity="0.08"/>
<g clip-path="url(#clip0_0_428)">
<path d="M36.164 29H21.419L20.478 21H28V19H20.242L20.2 18.648C20.1138 17.9186 19.7631 17.2462 19.2142 16.7581C18.6653 16.2701 17.9565 16.0003 17.222 16H16V18H17.222C17.4669 18 17.7033 18.09 17.8864 18.2527C18.0694 18.4155 18.1863 18.6397 18.215 18.883L19.8 32.351C19.886 33.0806 20.2366 33.7533 20.7855 34.2415C21.3344 34.7298 22.0434 34.9997 22.778 35H36V33H22.778C22.5329 32.9999 22.2964 32.9099 22.1133 32.7469C21.9303 32.5839 21.8134 32.3594 21.785 32.116L21.654 31H37.836L38.736 26H36.705L36.164 29Z" fill="#00509D"/>
<path d="M23.0001 40.0006C24.1047 40.0006 25.0001 39.1052 25.0001 38.0006C25.0001 36.8961 24.1047 36.0006 23.0001 36.0006C21.8956 36.0006 21.0002 36.8961 21.0002 38.0006C21.0002 39.1052 21.8956 40.0006 23.0001 40.0006Z" fill="#00509D"/>
<path d="M33 40.0006C34.1046 40.0006 35 39.1052 35 38.0006C35 36.8961 34.1046 36.0006 33 36.0006C31.8954 36.0006 31 36.8961 31 38.0006C31 39.1052 31.8954 40.0006 33 40.0006Z" fill="#00509D"/>
<path d="M33.0778 24.5427H33.1108C33.3588 24.5435 33.6046 24.4951 33.8338 24.4001C34.0629 24.3052 34.271 24.1657 34.4458 23.9897L39.7068 18.7287L38.2928 17.3147L33.1118 22.5007L30.8678 20.1607L29.4268 21.5467L31.7328 23.9467C31.9051 24.1317 32.1131 24.2799 32.3443 24.3824C32.5754 24.4848 32.825 24.5393 33.0778 24.5427V24.5427Z" fill="#00509D"/>
</g>
<defs>
<clipPath id="clip0_0_428">
<rect width="24" height="24" fill="white" transform="translate(16 16)"/>
</clipPath>
</defs>
</svg>
