<svg width="56" height="56" viewBox="0 0 56 56" fill="none" xmlns="http://www.w3.org/2000/svg">
<rect width="56" height="56" rx="4" fill="#D90429" fill-opacity="0.08"/>
<g clip-path="url(#clip0_0_422)">
<path d="M36.9049 16H19.0999C18.2718 16.0066 17.4802 16.3416 16.899 16.9315C16.3177 17.5214 15.9944 18.3179 15.9999 19.146V24H17.9999V19.146C17.9969 18.9985 18.0229 18.8519 18.0766 18.7145C18.1302 18.577 18.2104 18.4515 18.3125 18.3451C18.4147 18.2387 18.5368 18.1534 18.6719 18.0942C18.807 18.035 18.9525 18.003 19.0999 18H36.9099C37.2061 18.0086 37.4867 18.1339 37.6909 18.3486C37.8951 18.5632 38.0061 18.8498 37.9999 19.146V36.854C38.0061 37.151 37.8944 37.4384 37.6891 37.6532C37.4839 37.8679 37.2019 37.9927 36.9049 38H19.0999C18.9525 37.997 18.807 37.965 18.6719 37.9058C18.5368 37.8466 18.4147 37.7613 18.3125 37.6549C18.2104 37.5485 18.1302 37.423 18.0766 37.2855C18.0229 37.1481 17.9969 37.0015 17.9999 36.854V32H15.9999V36.854C15.9944 37.6821 16.3177 38.4786 16.899 39.0685C17.4802 39.6584 18.2718 39.9934 19.0999 40H36.9099C37.7363 39.9908 38.5254 39.6546 39.1045 39.065C39.6836 38.4754 40.0056 37.6804 39.9999 36.854V19.146C40.0055 18.3187 39.6829 17.523 39.1027 16.9333C38.5225 16.3435 37.7322 16.0079 36.9049 16V16Z" fill="#D90429"/>
<path d="M19 28.9991H33.086L28.786 33.2991L30.2 34.7171L35.149 29.7671C35.3812 29.535 35.5654 29.2593 35.6911 28.956C35.8168 28.6526 35.8815 28.3275 35.8815 27.9991C35.8815 27.6708 35.8168 27.3456 35.6911 27.0423C35.5654 26.7389 35.3812 26.4633 35.149 26.2311L30.2 21.2811L28.783 22.6991L33.083 26.9991H19V28.9991Z" fill="#D90429"/>
</g>
<defs>
<clipPath id="clip0_0_422">
<rect width="24" height="24" fill="white" transform="translate(16 16)"/>
</clipPath>
</defs>
</svg>
