<svg width="56" height="56" viewBox="0 0 56 56" fill="none" xmlns="http://www.w3.org/2000/svg">
<rect width="56" height="56" rx="4" fill="#00509D" fill-opacity="0.08"/>
<g clip-path="url(#clip0_0_434)">
<path d="M28.0322 35C28.4263 35.0007 28.8167 34.9234 29.1808 34.7728C29.545 34.6221 29.8758 34.4009 30.1542 34.122L34.0732 30.2L32.6592 28.79L29.0262 32.424L29.0002 16H27.0002L27.0262 32.408L23.4062 28.788L21.9922 30.2L25.9112 34.119C26.1893 34.3983 26.5198 34.6199 26.8838 34.7711C27.2478 34.9223 27.6381 35.0001 28.0322 35V35Z" fill="#00509D"/>
<path d="M38 32.0003V37.0003C38 37.2655 37.8946 37.5199 37.7071 37.7074C37.5196 37.8949 37.2652 38.0003 37 38.0003H19C18.7348 38.0003 18.4804 37.8949 18.2929 37.7074C18.1054 37.5199 18 37.2655 18 37.0003V32.0003H16V37.0003C16 37.7959 16.3161 38.559 16.8787 39.1216C17.4413 39.6842 18.2044 40.0003 19 40.0003H37C37.7956 40.0003 38.5587 39.6842 39.1213 39.1216C39.6839 38.559 40 37.7959 40 37.0003V32.0003H38Z" fill="#00509D"/>
</g>
<defs>
<clipPath id="clip0_0_434">
<rect width="24" height="24" fill="white" transform="translate(16 16)"/>
</clipPath>
</defs>
</svg>
