<svg width="32" height="32" viewBox="0 0 32 32" fill="none" xmlns="http://www.w3.org/2000/svg">
<g id="coin-svgrepo-com 1">
<path id="Vector" d="M24.6666 16.8666V21.7999C24.6666 25.9599 20.7866 29.3332 16 29.3332C11.2133 29.3332 7.33331 25.9599 7.33331 21.7999V16.8666C7.33331 21.0266 11.2133 23.9999 16 23.9999C20.7866 23.9999 24.6666 21.0266 24.6666 16.8666Z" stroke="white" stroke-width="2" stroke-linecap="round" stroke-linejoin="round"/>
<path id="Vector_2" d="M24.6666 10.2C24.6666 11.4133 24.3333 12.5333 23.7466 13.4933C22.32 15.84 19.3866 17.3333 16 17.3333C12.6133 17.3333 9.67998 15.84 8.25331 13.4933C7.66665 12.5333 7.33331 11.4133 7.33331 10.2C7.33331 8.11996 8.30663 6.23996 9.86663 4.87996C11.44 3.50663 13.6 2.66663 16 2.66663C18.4 2.66663 20.56 3.50663 22.1333 4.86663C23.6933 6.23996 24.6666 8.11996 24.6666 10.2Z" stroke="white" stroke-width="2" stroke-linecap="round" stroke-linejoin="round"/>
<path id="Vector_3" d="M24.6666 10.2V16.8666C24.6666 21.0266 20.7866 24 16 24C11.2133 24 7.33331 21.0266 7.33331 16.8666V10.2C7.33331 6.03996 11.2133 2.66663 16 2.66663C18.4 2.66663 20.56 3.50663 22.1333 4.86663C23.6933 6.23996 24.6666 8.11996 24.6666 10.2Z" stroke="white" stroke-width="2" stroke-linecap="round" stroke-linejoin="round"/>
</g>
</svg>
