<svg width="32" height="32" viewBox="0 0 32 32" fill="none" xmlns="http://www.w3.org/2000/svg">
<g id="pin-distance-svgrepo-com 1" clip-path="url(#clip0_1_645)">
<g id="Group">
<path id="Vector" d="M13.3 11.9667C13.9526 11.3141 14.397 10.4825 14.577 9.5773C14.7571 8.67207 14.6646 7.73378 14.3114 6.88109C13.9582 6.02839 13.36 5.29959 12.5926 4.78683C11.8252 4.27407 10.923 4.00038 9.99999 4.00038C9.07703 4.00038 8.1748 4.27407 7.40738 4.78683C6.63996 5.29959 6.04182 6.02839 5.6886 6.88109C5.33538 7.73378 5.24293 8.67207 5.42296 9.5773C5.60299 10.4825 6.0474 11.3141 6.69999 11.9667L9.99999 15.2667L13.3 11.9667ZM9.99999 19.0374L4.81333 13.8534C3.78809 12.8277 3.09 11.521 2.80732 10.0985C2.52464 8.67611 2.67006 7.2018 3.22521 5.86201C3.78035 4.52222 4.72028 3.37711 5.92617 2.57147C7.13206 1.76582 8.54974 1.33582 9.99999 1.33582C11.4502 1.33582 12.8679 1.76582 14.0738 2.57147C15.2797 3.37711 16.2196 4.52222 16.7748 5.86201C17.3299 7.2018 17.4753 8.67611 17.1927 10.0985C16.91 11.521 16.2119 12.8277 15.1867 13.8534L9.99999 19.04V19.0374ZM9.99999 10.6667C9.46956 10.6667 8.96085 10.456 8.58578 10.0809C8.21071 9.70586 7.99999 9.19715 7.99999 8.66671C7.99999 8.13628 8.21071 7.62757 8.58578 7.2525C8.96085 6.87743 9.46956 6.66671 9.99999 6.66671C10.5304 6.66671 11.0391 6.87743 11.4142 7.2525C11.7893 7.62757 12 8.13628 12 8.66671C12 9.19715 11.7893 9.70586 11.4142 10.0809C11.0391 10.456 10.5304 10.6667 9.99999 10.6667ZM22 27.2667L25.3 23.9667C25.9526 23.3141 26.397 22.4825 26.577 21.5773C26.7571 20.6721 26.6646 19.7338 26.3114 18.8811C25.9582 18.0284 25.36 17.2996 24.5926 16.7868C23.8252 16.2741 22.923 16.0004 22 16.0004C21.077 16.0004 20.1748 16.2741 19.4074 16.7868C18.64 17.2996 18.0418 18.0284 17.6886 18.8811C17.3354 19.7338 17.2429 20.6721 17.423 21.5773C17.603 22.4825 18.0474 23.3141 18.7 23.9667L22 27.2667ZM27.1867 25.8534L22 31.0374L16.8133 25.852C15.7881 24.8263 15.09 23.5196 14.8073 22.0972C14.5246 20.6748 14.6701 19.2005 15.2252 17.8607C15.7804 16.5209 16.7203 15.3758 17.9262 14.5701C19.1321 13.7645 20.5497 13.3345 22 13.3345C23.4502 13.3345 24.8679 13.7645 26.0738 14.5701C27.2797 15.3758 28.2196 16.5209 28.7748 17.8607C29.3299 19.2005 29.4753 20.6748 29.1927 22.0972C28.91 23.5196 28.2119 24.8277 27.1867 25.8534ZM22 22.6667C21.4696 22.6667 20.9609 22.456 20.5858 22.0809C20.2107 21.7059 20 21.1971 20 20.6667C20 20.1363 20.2107 19.6276 20.5858 19.2525C20.9609 18.8774 21.4696 18.6667 22 18.6667C22.5304 18.6667 23.0391 18.8774 23.4142 19.2525C23.7893 19.6276 24 20.1363 24 20.6667C24 21.1971 23.7893 21.7059 23.4142 22.0809C23.0391 22.456 22.5304 22.6667 22 22.6667Z" fill="white"/>
</g>
</g>
<defs>
<clipPath id="clip0_1_645">
<rect width="32" height="32" fill="white"/>
</clipPath>
</defs>
</svg>
