<svg width="56" height="56" viewBox="0 0 56 56" fill="none" xmlns="http://www.w3.org/2000/svg">
<rect width="56" height="56" rx="4" fill="#00509D" fill-opacity="0.08"/>
<path d="M33.3333 22.6667V18.6667H22.6667V22.6667H20V16H36V22.6667H33.3333ZM36 28.6667C36.3778 28.6667 36.6947 28.5387 36.9507 28.2827C37.2067 28.0267 37.3342 27.7102 37.3333 27.3333C37.3333 26.9556 37.2053 26.6387 36.9493 26.3827C36.6933 26.1267 36.3769 25.9991 36 26C35.6222 26 35.3053 26.128 35.0493 26.384C34.7933 26.64 34.6658 26.9564 34.6667 27.3333C34.6667 27.7111 34.7947 28.028 35.0507 28.284C35.3067 28.54 35.6231 28.6676 36 28.6667ZM33.3333 37.3333V32H22.6667V37.3333H33.3333ZM36 40H20V34.6667H14.6667V26.6667C14.6667 25.5333 15.0556 24.5831 15.8333 23.816C16.6111 23.0489 17.5556 22.6658 18.6667 22.6667H37.3333C38.4667 22.6667 39.4169 23.0502 40.184 23.8173C40.9511 24.5844 41.3342 25.5342 41.3333 26.6667V34.6667H36V40ZM38.6667 32V26.6667C38.6667 26.2889 38.5387 25.972 38.2827 25.716C38.0267 25.46 37.7102 25.3324 37.3333 25.3333H18.6667C18.2889 25.3333 17.972 25.4613 17.716 25.7173C17.46 25.9733 17.3324 26.2898 17.3333 26.6667V32H20V29.3333H36V32H38.6667Z" fill="#00509D"/>
</svg>
