<svg width="56" height="56" viewBox="0 0 56 56" fill="none" xmlns="http://www.w3.org/2000/svg">
<rect width="56" height="56" rx="4" fill="#00509D" fill-opacity="0.08"/>
<g clip-path="url(#clip0_0_486)">
<path d="M43.9997 42.1156L35.6504 33.7663C37.8192 31.1137 38.8855 27.7291 38.6288 24.3123C38.3721 20.8956 36.812 17.7083 34.2712 15.4096C31.7303 13.1109 28.4032 11.8768 24.9779 11.9624C21.5526 12.0481 18.2913 13.447 15.8685 15.8697C13.4457 18.2925 12.0469 21.5539 11.9612 24.9791C11.8756 28.4044 13.1097 31.7315 15.4084 34.2724C17.7071 36.8132 20.8944 38.3733 24.3111 38.6301C27.7278 38.8868 31.1125 37.8204 33.765 35.6516L42.1144 44.0009L43.9997 42.1156ZM25.333 36.0009C23.2234 36.0009 21.1611 35.3753 19.407 34.2033C17.6528 33.0312 16.2857 31.3653 15.4783 29.4162C14.671 27.4671 14.4598 25.3224 14.8713 23.2533C15.2829 21.1842 16.2988 19.2836 17.7906 17.7918C19.2823 16.3 21.1829 15.2841 23.2521 14.8726C25.3212 14.461 27.4659 14.6722 29.415 15.4795C31.3641 16.2869 33.03 17.6541 34.2021 19.4082C35.3741 21.1623 35.9997 23.2246 35.9997 25.3343C35.9965 28.1623 34.8717 30.8735 32.872 32.8732C30.8723 34.8729 28.161 35.9978 25.333 36.0009Z" fill="#00509D"/>
</g>
<defs>
<clipPath id="clip0_0_486">
<rect width="32" height="32" fill="white" transform="translate(12 12)"/>
</clipPath>
</defs>
</svg>
