<svg width="28" height="11" viewBox="0 0 28 11" fill="none" xmlns="http://www.w3.org/2000/svg">
<path d="M4.63875 7.58C1.99075 6.52133 0.666748 5.992 0.666748 5.33333C0.666748 4.67467 1.99075 4.14667 4.63875 3.08667L8.38275 1.58933C11.0307 0.529333 12.3561 0 14.0001 0C15.6454 0 16.9694 0.529333 19.6174 1.58933L23.3614 3.08667C26.0094 4.14533 27.3334 4.67467 27.3334 5.33333C27.3334 5.992 26.0094 6.52 23.3614 7.58L19.6174 9.07733C16.9694 10.1387 15.6441 10.6667 14.0001 10.6667C12.3547 10.6667 11.0307 10.1373 8.38275 9.07867L4.64008 7.57867L4.63875 7.58Z" fill="black"/>
</svg>
