<svg width="56" height="56" viewBox="0 0 56 56" fill="none" xmlns="http://www.w3.org/2000/svg">
<rect width="56" height="56" rx="4" fill="#D90429" fill-opacity="0.08"/>
<g clip-path="url(#clip0_0_473)">
<path d="M14.5042 18.8282L12.3909 16.7148L14.2762 14.8295L16.3909 16.9428C16.6447 17.1855 16.9824 17.321 17.3336 17.321C17.6847 17.321 18.0224 17.1855 18.2762 16.9428L23.0576 12.1628L24.9429 14.0482L20.1616 18.8282C19.7901 19.1997 19.3491 19.4944 18.8638 19.6954C18.3784 19.8965 17.8582 20 17.3329 20C16.8075 20 16.2873 19.8965 15.802 19.6954C15.3166 19.4944 14.8757 19.1997 14.5042 18.8282V18.8282ZM28.0002 18.6668H44.0002V16.0002H28.0002V18.6668ZM17.3336 30.6668C17.859 30.6683 18.3796 30.5655 18.865 30.3643C19.3505 30.1631 19.7912 29.8676 20.1616 29.4948L24.9429 24.7148L23.0576 22.8295L18.2762 27.6095C18.0224 27.8522 17.6847 27.9877 17.3336 27.9877C16.9824 27.9877 16.6447 27.8522 16.3909 27.6095L14.2762 25.4962L12.3909 27.3815L14.5042 29.4948C14.8749 29.8675 15.3159 30.163 15.8015 30.3642C16.2872 30.5653 16.8079 30.6682 17.3336 30.6668V30.6668ZM28.0002 29.3335H44.0002V26.6668H28.0002V29.3335ZM17.3336 41.3335C17.859 41.335 18.3796 41.2322 18.865 41.031C19.3505 40.8298 19.7912 40.5343 20.1616 40.1615L24.9429 35.3815L23.0576 33.4962L18.2762 38.2762C18.0224 38.5189 17.6847 38.6543 17.3336 38.6543C16.9824 38.6543 16.6447 38.5189 16.3909 38.2762L14.2762 36.1628L12.3909 38.0482L14.5042 40.1615C14.8749 40.5342 15.3159 40.8297 15.8015 41.0308C16.2872 41.232 16.8079 41.3349 17.3336 41.3335V41.3335ZM28.0002 40.0002H44.0002V37.3335H28.0002V40.0002Z" fill="#D90429"/>
</g>
<defs>
<clipPath id="clip0_0_473">
<rect width="32" height="32" fill="white" transform="translate(12 12)"/>
</clipPath>
</defs>
</svg>
