<svg width="27" height="16" viewBox="0 0 27 16" fill="none" xmlns="http://www.w3.org/2000/svg">
<path opacity="0.64" d="M3.97249 7.58C1.32449 6.52133 0.000488281 5.992 0.000488281 5.33333C0.000488281 4.67467 1.32449 4.14667 3.97249 3.08667L7.71649 1.58933C10.3645 0.529333 11.6898 0 13.3338 0C14.9792 0 16.3032 0.529333 18.9512 1.58933L22.6952 3.08667C25.3432 4.14533 26.6672 4.67467 26.6672 5.33333C26.6672 5.992 25.3432 6.52 22.6952 7.58L18.9512 9.07733C16.3032 10.1387 14.9778 10.6667 13.3338 10.6667C11.6885 10.6667 10.3645 10.1373 7.71649 9.07867L3.97382 7.57867L3.97249 7.58Z" fill="black"/>
<path d="M5.02182 8L3.97249 8.42C1.32449 9.47867 0.000488281 10.0093 0.000488281 10.6667C0.000488281 11.324 1.32449 11.8533 3.97249 12.9133L7.71649 14.4107C10.3645 15.472 11.6898 16 13.3338 16C14.9792 16 16.3032 15.4707 18.9512 14.412L22.6952 12.9133C25.3432 11.8547 26.6672 11.324 26.6672 10.6667C26.6672 10.0093 25.3432 9.48 22.6952 8.42L21.6458 8L18.9512 9.07867C16.3032 10.1373 14.9778 10.6667 13.3338 10.6667C11.6885 10.6667 10.3645 10.1373 7.71649 9.07867L5.02315 8H5.02182Z" fill="black"/>
</svg>
