<svg width="56" height="56" viewBox="0 0 56 56" fill="none" xmlns="http://www.w3.org/2000/svg">
<rect width="56" height="56" rx="4" fill="#D90429" fill-opacity="0.08"/>
<path d="M33.3333 14.6667C29.6533 14.6667 26.6667 17.6533 26.6667 21.3333C26.6667 25.0133 29.6533 28 33.3333 28C37.0133 28 40 25.0133 40 21.3333C40 17.6533 37.0133 14.6667 33.3333 14.6667ZM33.3333 25.3333C31.12 25.3333 29.3333 23.5467 29.3333 21.3333C29.3333 19.12 31.12 17.3333 33.3333 17.3333C35.5467 17.3333 37.3333 19.12 37.3333 21.3333C37.3333 23.5467 35.5467 25.3333 33.3333 25.3333ZM37.3333 33.3333H34.6667C34.6667 31.7333 33.6667 30.2933 32.1733 29.7333L23.96 26.6667H13.3333V41.3333H21.3333V39.4133L30.6667 42L41.3333 38.6667V37.3333C41.3333 35.12 39.5467 33.3333 37.3333 33.3333ZM18.6667 38.6667H16V29.3333H18.6667V38.6667ZM30.6267 39.2133L21.3333 36.6667V29.3333H23.48L31.24 32.2267C31.6933 32.4 32 32.84 32 33.3333C32 33.3333 29.3333 33.2667 28.9333 33.1333L25.76 32.08L24.92 34.6133L28.0933 35.6667C28.7733 35.8933 29.48 36 30.2 36H37.3333C37.8533 36 38.32 36.32 38.5333 36.76L30.6267 39.2133Z" fill="#D90429"/>
</svg>
