<svg width="27" height="22" viewBox="0 0 27 22" fill="none" xmlns="http://www.w3.org/2000/svg">
<path opacity="0.32" d="M3.972 7.91301C1.324 6.85434 0 6.32501 0 5.66634C0 5.00767 1.324 4.47967 3.972 3.41967L7.716 1.92234C10.364 0.862341 11.6893 0.333008 13.3333 0.333008C14.9787 0.333008 16.3027 0.862341 18.9507 1.92234L22.6947 3.41967C25.3427 4.47834 26.6667 5.00767 26.6667 5.66634C26.6667 6.32501 25.3427 6.85301 22.6947 7.91301L18.9507 9.41034C16.3027 10.4717 14.9773 10.9997 13.3333 10.9997C11.688 10.9997 10.364 10.4703 7.716 9.41167L3.97333 7.91167L3.972 7.91301Z" fill="black"/>
<path opacity="0.64" d="M5.02133 8.33301L3.972 8.75301C1.324 9.81167 0 10.3423 0 10.9997C0 11.657 1.324 12.1863 3.972 13.2463L7.716 14.7437C10.364 15.805 11.6893 16.333 13.3333 16.333C14.9787 16.333 16.3027 15.8037 18.9507 14.745L22.6947 13.2463C25.3427 12.1877 26.6667 11.657 26.6667 10.9997C26.6667 10.3423 25.3427 9.81301 22.6947 8.75301L21.6453 8.33301L18.9507 9.41167C16.3027 10.4703 14.9773 10.9997 13.3333 10.9997C11.688 10.9997 10.364 10.4703 7.716 9.41167L5.02267 8.33301H5.02133Z" fill="black"/>
<path d="M5.02133 13.666L3.972 14.086C1.324 15.1447 0 15.6753 0 16.3327C0 16.9913 1.324 17.5193 3.972 18.5793L7.716 20.0767C10.364 21.138 11.6893 21.666 13.3333 21.666C14.9787 21.666 16.3027 21.1367 18.9507 20.0767L22.6947 18.5793C25.3427 17.5207 26.6667 16.9913 26.6667 16.3327C26.6667 15.6753 25.3427 15.146 22.6947 14.086L21.6453 13.666L18.9507 14.7447C16.3027 15.8033 14.9773 16.3327 13.3333 16.3327C11.688 16.3327 10.364 15.8033 7.716 14.7447L5.02267 13.666H5.02133Z" fill="black"/>
</svg>
