<svg width="32" height="32" viewBox="0 0 32 32" fill="none" xmlns="http://www.w3.org/2000/svg">
<g id="weight-svgrepo-com (2) 1" clip-path="url(#clip0_1_620)">
<g id="Group">
<g id="Group_2">
<path id="Vector" d="M22.2998 9.90925C27.2396 9.90925 31.2585 5.89038 31.2585 0.9505V0H0.741577V0.950562C0.741577 5.89044 4.76045 9.90931 9.70027 9.90931H11.9065V11.6006H0.741577V32H31.2585V11.6006H20.0935V9.90931L22.2998 9.90925ZM29.3574 13.5016V30.0989H2.64264V13.5016H11.9065H20.0936H29.3574ZM13.8075 11.6006V9.90931H18.1925V11.6006H13.8075ZM11.9065 8.00819H9.70027C6.13101 8.00819 3.17201 5.34475 2.70639 1.90106H29.2936C28.828 5.34475 25.8691 8.00819 22.2998 8.00819H20.0936H11.9065Z" fill="white"/>
</g>
</g>
<g id="Group_3">
<g id="Group_4">
<path id="Vector_2" d="M15.9999 14.606C12.033 14.606 8.80563 17.8333 8.80563 21.8003C8.80563 25.7673 12.033 28.9947 15.9999 28.9947C19.9669 28.9947 23.1943 25.7673 23.1943 21.8003C23.1943 17.8333 19.9668 14.606 15.9999 14.606ZM16 27.0935C13.0814 27.0935 10.7068 24.719 10.7068 21.8002C10.7068 18.8815 13.0813 16.5069 16 16.5069C18.9188 16.5069 21.2933 18.8815 21.2933 21.8002C21.2933 24.719 18.9186 27.0935 16 27.0935Z" fill="white"/>
</g>
</g>
<g id="Group_5">
<g id="Group_6">
<path id="Vector_3" d="M16.9506 20.8497V18.0912H15.0494V22.7507H19.709V20.8497H16.9506Z" fill="white"/>
</g>
</g>
</g>
<defs>
<clipPath id="clip0_1_620">
<rect width="32" height="32" fill="white"/>
</clipPath>
</defs>
</svg>
